HIERARCHY
ROOT Hips
{
  OFFSET 120.747 100.897 258.972
  CHANNELS 6 Xposition Yposition Zposition Zrotation Xrotation Yrotation
  JOINT RightUpLeg
  {
    OFFSET -8.9458 -8.66707 0.101652
    CHANNELS 3 Zrotation Xrotation Yrotation
    JOINT RightLeg
    {
      OFFSET 0 -44.4227 1.3727
      CHANNELS 3 Zrotation Xrotation Yrotation
      JOINT RightFoot
      {
        OFFSET 0.253549 -42.0924 -1.46059
        CHANNELS 3 Zrotation Xrotation Yrotation
        JOINT RightToes
        {
          OFFSET 0.04 -4.41509 8.4991
          CHANNELS 3 Zrotation Xrotation Yrotation
          End Site
          {
            OFFSET -0.08 -0.137448 9.77979
          }
        }
      }
    }
  }
  JOINT Spine
  {
    OFFSET 0 11.8905 0
    CHANNELS 3 Zrotation Xrotation Yrotation
    JOINT Spine1
    {
      OFFSET 0 25.6574 0.127663
      CHANNELS 3 Zrotation Xrotation Yrotation
      JOINT HEad
      {
        OFFSET 0 8.73416 0.011341
        CHANNELS 3 Zrotation Xrotation Yrotation
        End Site
        {
          OFFSET -0.29 12.7742 2.51395
        }
      }
      JOINT LeftShoulder1
      {
        OFFSET 8.99 -0.362252 -0.22
        CHANNELS 3 Zrotation Xrotation Yrotation
        JOINT LeftArm
        {
          OFFSET 10.2827 -0.00338 0.322123
          CHANNELS 3 Zrotation Xrotation Yrotation
          JOINT LeftForeArm
          {
            OFFSET 32.7669 0.099144 -1.42434
            CHANNELS 3 Zrotation Xrotation Yrotation
            JOINT LeftHand
            {
              OFFSET 27.5643 0.085362 1.02216
              CHANNELS 3 Zrotation Xrotation Yrotation
              End Site
              {
                OFFSET 16.7443 -0.6 1.50291
              }
            }
          }
        }
      }
      JOINT RightShoulder
      {
        OFFSET -8.99 -0.362252 -0.22
        CHANNELS 3 Zrotation Xrotation Yrotation
        JOINT RightArm
        {
          OFFSET -10.2827 -0.00338 0.322123
          CHANNELS 3 Zrotation Xrotation Yrotation
          JOINT RightForeArm
          {
            OFFSET -32.8971 0.099144 -1.42434
            CHANNELS 3 Zrotation Xrotation Yrotation
            JOINT RightHand
            {
              OFFSET -27.4921 0.085362 1.02216
              CHANNELS 3 Zrotation Xrotation Yrotation
              End Site
              {
                OFFSET -16.6312 -0.6 1.50291
              }
            }
          }
        }
      }
    }
  }
  JOINT LeftUpLeg
  {
    OFFSET 8.9458 -8.66707 0.101652
    CHANNELS 3 Zrotation Xrotation Yrotation
    JOINT LeftLeg
    {
      OFFSET 0 -44.4227 1.3727
      CHANNELS 3 Zrotation Xrotation Yrotation
      JOINT LeftFoot
      {
        OFFSET -0.253549 -42.0924 -1.46059
        CHANNELS 3 Zrotation Xrotation Yrotation
        JOINT LeftToes
        {
          OFFSET -0.04 -4.41509 8.4991
          CHANNELS 3 Zrotation Xrotation Yrotation
          End Site
          {
            OFFSET 0.08 -0.047448 9.77979
          }
        }
      }
    }
  }
}
MOTION
Frames:	14
Frame Time:	0.0166667
113.603 104.21 8.21302 -6.5918 6.42234 -179.089 -4.9707 -10.8174 2.3684 4.37458 63.6925 -9.30769 6.01461 19.2999 -1.30342 33.0407 24.3915 1.64769 -4.79197 8.89949 -0.24703 -5.33744 12.3487 0.622095 4.49259 -11.8458 -4.71841 -1.44119e-015 -3.18055e-015 -1.98785e-016 -90.0037 -44.4045 -15.1226 -3.12673 13.4648 -10.1028 0.368473 9.90896 -0.00117927 28.571 -0.0576401 -3.66992 76.6233 -16.8213 39.3966 1.00171 13.2747 -1.2896 -0.369625 9.91382 0.00119887 -8.32279 -7.06173 -13.4476 -6.17087 18.8373 10.5146 3.46024 7.2996 -0.264736 5.21215 0.274525 -3.80991 
113.384 104.262 6.41824 -6.27598 6.47074 -179.247 -4.69837 -13.3114 1.34111 3.55819 64.6339 -8.59787 5.82453 17.3126 -1.16575 26.9516 20.0021 2.39615 -5.26855 8.97898 -0.0810076 -5.33114 12.4778 0.695181 4.92624 -12.3911 -4.9046 5.46658e-016 -3.18055e-015 -1.98785e-016 -90.0911 -42.4784 -16.1229 -3.25796 13.4806 -10.8243 0.368473 9.90896 -0.00117927 31.2248 -0.0691682 -3.68692 75.1341 -19.2608 39.9015 1.00171 13.2747 -1.2896 -0.369625 9.91382 0.00119887 -8.16874 -6.14608 -12.9667 -6.08336 19.5046 10.3761 3.23125 5.99549 -0.204077 5.77654 -0.0638356 -3.93943 
113.175 104.277 4.63541 -5.95196 6.59349 -179.264 -4.55052 -15.455 0.662567 4.06686 64.6277 -9.33979 5.55435 15.6427 -1.03981 19.4122 14.5886 3.04779 -5.71876 9.02544 0.0893408 -5.39536 12.7766 0.810279 5.48462 -12.899 -5.26195 6.95746e-016 0 -0 -90.4376 -39.8623 -17.9495 -3.18585 13.4762 -10.4242 0.368473 9.90896 -0.00117927 33.9885 -0.0639286 -3.66325 73.6124 -21.7289 40.5173 1.00171 13.2747 -1.2896 -0.369625 9.91382 0.00119887 -7.9972 -5.13538 -12.644 -6.02757 20.1173 10.13 3.13082 4.91541 -0.160381 6.09665 -0.781845 -3.58404 
112.933 104.268 2.86801 -5.58435 6.8315 -179.229 -4.61664 -17.1544 0.318378 5.99393 63.7009 -11.4167 5.06605 14.0735 -0.896553 8.57114 8.47311 5.23727 -6.01308 8.90159 0.400607 -5.33908 13.5226 1.0973 5.93974 -13.421 -5.9497 9.93923e-017 0 -1.98785e-016 -91.28 -36.3218 -20.8627 -2.84909 13.4153 -8.58532 0.368473 9.90896 -0.00117927 36.2481 -0.0189319 -3.55089 72.2491 -23.967 41.0456 1.00171 13.2747 -1.2896 -0.369625 9.91382 0.00119887 -7.84403 -3.85759 -12.2055 -5.86831 20.421 9.51788 3.60953 4.5261 -0.182041 6.35463 -2.58022 -2.27725 
112.71 104.237 1.10342 -5.2658 7.05752 -179.108 -4.72558 -18.5846 0.187553 8.08449 61.9292 -13.8262 4.59528 12.6729 -0.771468 -1.46069 2.50071 6.55707 -6.25304 8.77368 0.638146 -5.36292 14.2041 1.34929 6.43972 -13.756 -6.62512 -9.93923e-016 0 -0 -91.9513 -32.6119 -24.0951 -2.33352 13.3426 -5.81863 0.368473 9.90896 -0.00117927 38.2667 0.0434502 -3.40584 71.0306 -25.988 41.454 1.00171 13.2747 -1.2896 -0.369625 9.91382 0.00119887 -7.72992 -2.53331 -11.7533 -5.66371 20.5995 8.85811 4.1307 4.25047 -0.209842 6.80109 -4.44798 -0.973556 
112.553 104.195 -0.672571 -5.09514 7.12796 -178.869 -4.73464 -19.9173 0.0447171 8.97702 59.4598 -15.4324 4.37304 11.3795 -0.69628 -7.6748 -2.49103 4.34033 -6.51743 8.79272 0.588245 -5.62897 14.305 1.35752 7.12445 -13.6443 -6.94454 5.96354e-016 -3.18055e-015 -3.97569e-016 -92.3648 -29.418 -27.4111 -1.61657 13.3149 -1.97636 0.368473 9.90896 -0.00117927 40.1009 0.114098 -3.259 70.0108 -27.6969 41.5741 1.00171 13.2747 -1.2896 -0.369625 9.91382 0.00119887 -7.70279 -1.36648 -11.3722 -5.42423 20.7713 8.4966 4.21886 3.56837 -0.189796 7.57967 -5.39216 -0.67008 
112.429 104.139 -2.45167 -5.01511 7.13246 -178.601 -4.7687 -21.0653 0.164716 9.6305 56.2838 -17.09 4.26493 10.3644 -0.651947 -12.049 -6.39899 1.12928 -6.75596 8.86839 0.386384 -6.01105 14.1189 1.24412 7.85323 -13.3304 -7.05459 -4.41391e-032 -3.18055e-015 -7.95139e-016 -92.3513 -26.7159 -30.1304 -1.00422 13.2681 1.28992 0.368473 9.90896 -0.00117927 41.7569 0.176195 -3.13762 69.1174 -29.1772 41.5476 1.00171 13.2747 -1.2896 -0.369625 9.91382 0.00119887 -7.69133 -0.2407 -10.8242 -5.16485 20.8889 8.09796 4.14844 2.77564 -0.155525 8.60825 -6.04633 -0.784314 
112.321 104.076 -4.22211 -5.0282 7.13387 -178.392 -4.93814 -21.9864 0.775469 10.4773 52.4005 -19.2339 4.20784 9.89424 -0.633628 -14.207 -8.59376 -1.59108 -6.91587 8.93712 0.0800244 -6.511 13.845 1.07563 8.51568 -13.0109 -6.97483 -3.97569e-016 -3.18055e-015 7.95139e-016 -91.7436 -24.7896 -31.2129 -0.920088 13.2569 1.73399 0.368473 9.90896 -0.00117927 43.2313 0.211394 -3.07881 68.3657 -30.3994 41.5116 1.00171 13.2747 -1.2896 -0.369625 9.91382 0.00119887 -7.6678 0.934868 -9.76428 -4.87778 20.9102 7.37873 3.97865 1.98614 -0.12092 10.19 -6.73963 -1.22868 
112.233 103.991 -6.00851 -5.05415 7.06957 -178.208 -5.09437 -22.7068 1.81258 11.147 47.8764 -21.5741 4.22414 9.62138 -0.631957 -15.0461 -9.56923 -3.3179 -7.07954 9.06888 -0.281058 -6.92877 13.2489 0.81587 9.12292 -12.5625 -6.75217 3.27995e-015 -1.59028e-015 -1.98785e-016 -91.0295 -23.3861 -31.7042 -1.00422 13.2681 1.28992 0.368473 9.90896 -0.00117927 44.6109 0.215093 -3.0839 67.6288 -31.5608 41.3809 1.00171 13.2747 -1.2896 -0.369625 9.91382 0.00119887 -7.63076 2.04738 -8.60347 -4.63599 20.9262 6.52653 3.87653 1.22571 -0.0908419 11.485 -7.39321 -1.51019 
112.166 103.865 -7.83779 -5.00174 6.90389 -178.057 -5.13331 -23.2245 3.37002 11.6535 42.7548 -24.456 4.3507 9.21328 -0.637838 -15.9399 -9.70237 -2.44377 -7.35463 9.3403 -0.611807 -7.02569 12.1091 0.446096 9.65432 -11.9107 -6.4178 2.98177e-015 0 -1.98785e-016 -90.4451 -22.3377 -32.2946 -1.00422 13.2681 1.28992 0.368473 9.90896 -0.00117927 45.9892 0.179841 -3.16329 66.7621 -32.8909 41.1222 1.00171 13.2747 -1.2896 -0.369625 9.91382 0.00119887 -7.51042 2.99609 -7.59617 -4.53338 21.0543 5.52019 4.18695 0.523195 -0.0796668 11.3305 -8.00626 -0.823149 
112.117 103.723 -9.69133 -4.90459 6.6188 -177.892 -5.08245 -23.5594 5.18189 11.5115 37.194 -26.7603 4.48605 8.89145 -0.647237 -15.4517 -8.83104 -0.732969 -7.60815 9.66859 -0.971343 -6.9524 10.5862 -0.0120067 10.0877 -11.1035 -6.04103 7.45443e-016 -4.77083e-015 -1.98785e-016 -89.9844 -21.7037 -32.7449 -1.00422 13.2681 1.28992 0.368473 9.90896 -0.00117927 47.3407 0.0959006 -3.32698 65.824 -34.2827 40.7729 1.00171 13.2747 -1.2896 -0.369625 9.91382 0.00119887 -7.35145 3.81271 -6.86494 -4.48099 21.181 4.69655 4.43291 -0.0166542 -0.0726538 11.1079 -8.67662 -0.00461946 
112.077 103.576 -11.552 -4.74517 6.10942 -177.62 -4.92939 -23.8248 7.13686 10.9374 31.2314 -27.9952 4.49582 8.76747 -0.648915 -12.1398 -6.85673 0.112728 -7.75047 10.0301 -1.4149 -6.70048 8.55121 -0.594567 10.369 -10.046 -5.73908 3.02836e-015 1.59028e-015 7.45443e-017 -89.7507 -21.6061 -32.9601 -1.00422 13.2681 1.28992 0.368473 9.90896 -0.00117927 48.7392 -0.0691801 -3.62347 64.7513 -35.8031 40.3402 1.00171 13.2747 -1.2896 -0.369625 9.91382 0.00119887 -7.1502 4.40124 -6.74741 -4.42155 21.262 4.51196 4.10146 -0.260422 -0.0553785 12.1796 -9.59971 0.193518 
112.062 103.448 -13.4421 -4.57955 5.60063 -177.384 -4.74003 -23.7759 8.84435 9.80205 25.2333 -28.0045 4.51657 8.83856 -0.655466 -7.77753 -3.97273 1.45826 -7.76204 10.3234 -1.86871 -6.51269 6.65294 -1.15186 10.5893 -9.09539 -5.39544 -6.4605e-016 1.59028e-015 -2.98177e-016 -89.6184 -21.7044 -33.2101 -1.00422 13.2681 1.28992 0.368473 9.90896 -0.00117927 49.9758 -0.254485 -3.94766 63.7737 -37.1501 39.8748 1.00171 13.2747 -1.2896 -0.369625 9.91382 0.00119887 -6.94709 5.04507 -6.85942 -4.38044 21.2283 4.59675 3.64692 -0.265261 -0.0413155 13.335 -10.4912 0.307325 
112.085 103.384 -15.375 -4.47337 5.31213 -177.353 -4.61381 -23.1316 9.99941 8.22231 19.1029 -26.1284 4.63904 9.28411 -0.679652 -3.56315 0.382245 5.03483 -7.52953 10.382 -2.2974 -6.68115 5.67251 -1.53229 10.8756 -8.67897 -4.82536 2.83268e-015 -1.59028e-015 3.97569e-016 -89.4517 -21.7249 -33.8055 -1.00422 13.2681 1.28992 0.368473 9.90896 -0.00117927 50.8334 -0.412803 -4.2119 63.2005 -37.9142 39.4507 1.00171 13.2747 -1.2896 -0.369625 9.91382 0.00119887 -6.83385 6.08876 -6.94586 -4.37097 20.8652 4.78401 3.39152 0.0234272 -0.0422738 13.5685 -11.0871 0.764442 
